<svg width="430" height="932" viewBox="0 0 430 932" fill="none" xmlns="http://www.w3.org/2000/svg">
<g clip-path="url(#clip0_21_429)">
<rect width="430" height="932" fill="white"/>
<mask id="mask0_21_429" style="mask-type:alpha" maskUnits="userSpaceOnUse" x="0" y="677" width="430" height="255">
<rect y="677" width="430" height="255" fill="#D9D9D9"/>
</mask>
<g mask="url(#mask0_21_429)">
<path fill-rule="evenodd" clip-rule="evenodd" d="M-296 677L-282.691 706.037C-269.383 735.074 -242.16 793.148 -215.543 807.667C-188.321 822.185 -161.704 793.148 -134.481 778.63C-107.864 764.111 -80.642 764.111 -54.0247 778.63C-27.4074 793.148 -0.185181 822.185 26.4321 836.704C53.6543 851.222 80.2716 851.222 107.494 829.444C134.111 807.667 161.333 764.111 187.951 745.963C214.568 727.815 241.79 735.074 268.407 749.593C295.63 764.111 322.247 785.889 349.469 775C376.086 764.111 403.309 720.556 416.617 698.778L429.926 677V873H416.617C403.309 873 376.086 873 349.469 873C322.247 873 295.63 873 268.407 873C241.79 873 214.568 873 187.951 873C161.333 873 134.111 873 107.494 873C80.2716 873 53.6543 873 26.4321 873C-0.185181 873 -27.4074 873 -54.0247 873C-80.642 873 -107.864 873 -134.481 873C-161.704 873 -188.321 873 -215.543 873C-242.16 873 -269.383 873 -282.691 873H-296V677Z" fill="#CE49F2"/>
<path fill-rule="evenodd" clip-rule="evenodd" d="M639.926 677L626.617 706.037C613.308 735.074 586.086 793.148 559.469 807.667C532.247 822.185 505.629 793.148 478.407 778.63C451.79 764.111 424.568 764.111 397.95 778.63C371.333 793.148 344.111 822.185 317.494 836.704C290.271 851.222 263.654 851.222 236.432 829.444C209.815 807.667 182.592 764.111 155.975 745.963C129.358 727.815 102.136 735.074 75.5184 749.593C48.2961 764.111 21.6789 785.889 -5.54333 775C-32.1606 764.111 -59.3829 720.556 -72.6915 698.778L-86.0001 677V873H-72.6915C-59.3829 873 -32.1606 873 -5.54333 873C21.6789 873 48.2961 873 75.5184 873C102.136 873 129.358 873 155.975 873C182.592 873 209.815 873 236.432 873C263.654 873 290.271 873 317.494 873C344.111 873 371.333 873 397.95 873C424.568 873 451.79 873 478.407 873C505.629 873 532.247 873 559.469 873C586.086 873 613.308 873 626.617 873H639.926V677Z" fill="#35AAF2"/>
<rect y="873" width="430" height="59" fill="#35AAF2"/>
</g>
<mask id="mask1_21_429" style="mask-type:alpha" maskUnits="userSpaceOnUse" x="0" y="0" width="430" height="255">
<rect width="430" height="255" fill="#D9D9D9"/>
</mask>
<g mask="url(#mask1_21_429)">
<path fill-rule="evenodd" clip-rule="evenodd" d="M557.926 244L544.617 214.963C531.308 185.926 504.086 127.852 477.469 113.333C450.247 98.8148 423.629 127.852 396.407 142.37C369.79 156.889 342.568 156.889 315.95 142.37C289.333 127.852 262.111 98.8148 235.494 84.2963C208.271 69.7778 181.654 69.7778 154.432 91.5556C127.815 113.333 100.592 156.889 73.9752 175.037C47.3579 193.185 20.1357 185.926 -6.48163 171.407C-33.7039 156.889 -60.3211 135.111 -87.5433 146C-114.161 156.889 -141.383 200.444 -154.692 222.222L-168 244V48H-154.692C-141.383 48 -114.161 48 -87.5433 48C-60.3211 48 -33.7039 48 -6.48163 48C20.1357 48 47.3579 48 73.9752 48C100.592 48 127.815 48 154.432 48C181.654 48 208.271 48 235.494 48C262.111 48 289.333 48 315.95 48C342.568 48 369.79 48 396.407 48C423.629 48 450.247 48 477.469 48C504.086 48 531.308 48 544.617 48H557.926V244Z" fill="#CE49F2"/>
<path fill-rule="evenodd" clip-rule="evenodd" d="M-296 255L-282.691 225.963C-269.383 196.926 -242.16 138.852 -215.543 124.333C-188.321 109.815 -161.704 138.852 -134.481 153.37C-107.864 167.889 -80.642 167.889 -54.0247 153.37C-27.4074 138.852 -0.185181 109.815 26.4321 95.2963C53.6543 80.7778 80.2716 80.7778 107.494 102.556C134.111 124.333 161.333 167.889 187.951 186.037C214.568 204.185 241.79 196.926 268.407 182.407C295.63 167.889 322.247 146.111 349.469 157C376.086 167.889 403.309 211.444 416.617 233.222L429.926 255V59H416.617C403.309 59 376.086 59 349.469 59C322.247 59 295.63 59 268.407 59C241.79 59 214.568 59 187.951 59C161.333 59 134.111 59 107.494 59C80.2716 59 53.6543 59 26.4321 59C-0.185181 59 -27.4074 59 -54.0247 59C-80.642 59 -107.864 59 -134.481 59C-161.704 59 -188.321 59 -215.543 59C-242.16 59 -269.383 59 -282.691 59H-296V255Z" fill="#35AAF2"/>
<rect width="430" height="75" fill="#35AAF2"/>
</g>
</g>
<defs>
<clipPath id="clip0_21_429">
<rect width="430" height="932" fill="white"/>
</clipPath>
</defs>
</svg>
