<svg width="430" height="932" viewBox="0 0 430 932" fill="none" xmlns="http://www.w3.org/2000/svg">
<rect width="430" height="932" fill="white"/>
<mask id="mask0_21_430" style="mask-type:alpha" maskUnits="userSpaceOnUse" x="0" y="738" width="430" height="194">
<rect y="738" width="430" height="194" fill="#D9D9D9"/>
</mask>
<g mask="url(#mask0_21_430)">
<path fill-rule="evenodd" clip-rule="evenodd" d="M724.926 738L711.617 767.037C698.308 796.074 671.086 854.148 644.469 868.667C617.247 883.185 590.629 854.148 563.407 839.63C536.79 825.111 509.568 825.111 482.95 839.63C456.333 854.148 429.111 883.185 402.494 897.704C375.271 912.222 348.654 912.222 321.432 890.444C294.815 868.667 267.592 825.111 240.975 806.963C214.358 788.815 187.136 796.074 160.518 810.593C133.296 825.111 106.679 846.889 79.4567 836C52.8394 825.111 25.6171 781.556 12.3085 759.778L-1.00012 738V934H12.3085C25.6171 934 52.8394 934 79.4567 934C106.679 934 133.296 934 160.518 934C187.136 934 214.358 934 240.975 934C267.592 934 294.815 934 321.432 934C348.654 934 375.271 934 402.494 934C429.111 934 456.333 934 482.95 934C509.568 934 536.79 934 563.407 934C590.629 934 617.247 934 644.469 934C671.086 934 698.308 934 711.617 934H724.926V738Z" fill="#CE49F2"/>
<path fill-rule="evenodd" clip-rule="evenodd" d="M-211 738L-197.691 767.037C-184.383 796.074 -157.16 854.148 -130.543 868.667C-103.321 883.185 -76.7037 854.148 -49.4815 839.63C-22.8642 825.111 4.35803 825.111 30.9753 839.63C57.5926 854.148 84.8148 883.185 111.432 897.704C138.654 912.222 165.272 912.222 192.494 890.444C219.111 868.667 246.333 825.111 272.951 806.963C299.568 788.815 326.79 796.074 353.407 810.593C380.63 825.111 407.247 846.889 434.469 836C461.086 825.111 488.309 781.556 501.617 759.778L514.926 738V934H501.617C488.309 934 461.086 934 434.469 934C407.247 934 380.63 934 353.407 934C326.79 934 299.568 934 272.951 934C246.333 934 219.111 934 192.494 934C165.272 934 138.654 934 111.432 934C84.8148 934 57.5926 934 30.9753 934C4.35803 934 -22.8642 934 -49.4815 934C-76.7037 934 -103.321 934 -130.543 934C-157.16 934 -184.383 934 -197.691 934H-211V738Z" fill="#35AAF2"/>
</g>
</svg>
