<svg width="430" height="932" viewBox="0 0 430 932" fill="none" xmlns="http://www.w3.org/2000/svg">
<rect width="430" height="932" fill="white"/>
<mask id="mask0_21_431" style="mask-type:alpha" maskUnits="userSpaceOnUse" x="0" y="0" width="429" height="255">
<rect width="429" height="255" fill="#D9D9D9"/>
</mask>
<g mask="url(#mask0_21_431)">
<path fill-rule="evenodd" clip-rule="evenodd" d="M724.926 255L711.617 225.963C698.308 196.926 671.086 138.852 644.469 124.333C617.247 109.815 590.629 138.852 563.407 153.37C536.79 167.889 509.568 167.889 482.95 153.37C456.333 138.852 429.111 109.815 402.494 95.2963C375.271 80.7778 348.654 80.7778 321.432 102.556C294.815 124.333 267.592 167.889 240.975 186.037C214.358 204.185 187.136 196.926 160.518 182.407C133.296 167.889 106.679 146.111 79.4567 157C52.8394 167.889 25.6171 211.444 12.3085 233.222L-1.00012 255V59H12.3085C25.6171 59 52.8394 59 79.4567 59C106.679 59 133.296 59 160.518 59C187.136 59 214.358 59 240.975 59C267.592 59 294.815 59 321.432 59C348.654 59 375.271 59 402.494 59C429.111 59 456.333 59 482.95 59C509.568 59 536.79 59 563.407 59C590.629 59 617.247 59 644.469 59C671.086 59 698.308 59 711.617 59H724.926V255Z" fill="#CE49F2"/>
<path fill-rule="evenodd" clip-rule="evenodd" d="M-211 255L-197.691 225.963C-184.383 196.926 -157.16 138.852 -130.543 124.333C-103.321 109.815 -76.7037 138.852 -49.4815 153.37C-22.8642 167.889 4.35803 167.889 30.9753 153.37C57.5926 138.852 84.8148 109.815 111.432 95.2963C138.654 80.7778 165.272 80.7778 192.494 102.556C219.111 124.333 246.333 167.889 272.951 186.037C299.568 204.185 326.79 196.926 353.407 182.407C380.63 167.889 407.247 146.111 434.469 157C461.086 167.889 488.309 211.444 501.617 233.222L514.926 255V59H501.617C488.309 59 461.086 59 434.469 59C407.247 59 380.63 59 353.407 59C326.79 59 299.568 59 272.951 59C246.333 59 219.111 59 192.494 59C165.272 59 138.654 59 111.432 59C84.8148 59 57.5926 59 30.9753 59C4.35803 59 -22.8642 59 -49.4815 59C-76.7037 59 -103.321 59 -130.543 59C-157.16 59 -184.383 59 -197.691 59H-211V255Z" fill="#35AAF2"/>
<rect x="428.926" y="59" width="430" height="59" transform="rotate(180 428.926 59)" fill="#35AAF2"/>
</g>
</svg>
